<?xml version="1.0" encoding="UTF-8"?><svg id="Layer_2" xmlns="http://www.w3.org/2000/svg" viewBox="0 0 355.06 114.01"><defs><style>.cls-1{fill:#fff;}</style></defs><g id="_레이어_1"><g><path class="cls-1" d="M85.44,53.56c-7.1,0-11.83,3.19-14.19,9.57v-6.52h-11.3v55.93h11.3v-40.93c.4-.91,1.25-2.03,2.56-3.37,2.35-2.25,5.14-3.37,8.37-3.37s6.07,1.15,8.42,3.45c2.35,2.3,3.53,5.06,3.53,8.29v35.93h11.25v-36.37c-.11-6.49-1.95-11.88-5.52-16.17-3.57-4.29-8.38-6.44-14.43-6.44Z"/><path class="cls-1" d="M149.53,63.62c5.36,0,9.93,1.88,13.7,5.65,.51,.51,1.49,1.65,2.93,3.42l11.25-4.13c-2.75-3.73-4.75-6.21-5.98-7.45-6.05-6.05-13.35-9.08-21.91-9.08s-15.8,3.03-21.85,9.08-9.08,13.35-9.08,21.91,3.03,15.86,9.08,21.91c6.05,6.05,13.34,9.08,21.85,9.08s15.85-3.03,21.91-9.08c1.23-1.23,3.23-3.75,5.98-7.56l-11.25-4.02c-1.45,1.74-2.41,2.86-2.88,3.37-3.8,3.77-8.39,5.65-13.75,5.65s-9.88-1.89-13.67-5.68c-3.79-3.79-5.68-8.34-5.68-13.67s1.89-9.94,5.68-13.73c3.79-3.79,8.34-5.68,13.67-5.68Z"/><path class="cls-1" d="M242.18,60.52c-5.44-5.58-11.74-8.37-18.91-8.37-8.55,0-15.85,3.02-21.88,9.05-6.03,6.03-9.05,13.33-9.05,21.88s3.02,15.85,9.05,21.88c6.03,6.03,13.32,9.05,21.88,9.05,7.17,0,13.48-2.81,18.91-8.42v7.01h11.3V56.61h-11.3v3.91Zm0,26.69c-.65,3.52-2.39,6.7-5.22,9.57-3.8,3.77-8.37,5.65-13.69,5.65s-9.94-1.89-13.73-5.68c-3.79-3.79-5.68-8.34-5.68-13.67s1.89-9.93,5.68-13.7c3.79-3.77,8.36-5.65,13.73-5.65s9.89,1.88,13.69,5.65c2.83,2.86,4.57,6.05,5.22,9.57v8.26Z"/><path class="cls-1" d="M281.1,64.16v-7.55h-11.25v55.93h11.25v-28.76c.15-5,2.05-9.31,5.71-12.94,2.43-2.43,5.69-3.75,9.78-3.97v-11.69c-6.13,.29-11.29,3.28-15.49,8.97Z"/><polygon class="cls-1" points="355.06 28.43 324.79 28.43 324.79 0 314.06 0 314.06 28.43 40.87 28.43 40.87 0 30.13 0 30.13 28.43 0 28.43 0 40.34 30.13 40.34 30.13 112.54 40.87 112.54 40.87 40.34 314.06 40.34 314.06 112.54 324.79 112.54 324.79 40.34 355.06 40.34 355.06 28.43"/></g></g></svg>