<?xml version="1.0" encoding="utf-8"?>
<!-- Generator: Adobe Illustrator 26.4.1, SVG Export Plug-In . SVG Version: 6.00 Build 0)  -->
<svg version="1.1" id="Layer_1" xmlns="http://www.w3.org/2000/svg" xmlns:xlink="http://www.w3.org/1999/xlink" x="0px" y="0px"
	 viewBox="0 0 252.2 242.2" style="enable-background:new 0 0 252.2 242.2;" xml:space="preserve">
<style type="text/css">
	.st0{fill:#FFFFFF;}
</style>
<g>
	<g>
		<g>
			<path class="st0" d="M50.6,212.1v29h-8v-39.7h8v4.6c1.7-4.5,5-6.8,10.1-6.8c4.3,0,7.7,1.5,10.2,4.6s3.8,6.9,3.9,11.5v25.8h-8
				v-25.5c0-2.3-0.8-4.3-2.5-5.9s-3.7-2.5-6-2.5s-4.3,0.8-5.9,2.4C51.5,210.6,50.9,211.4,50.6,212.1z"/>
			<path class="st0" d="M118,227.5l8,2.9c-2,2.7-3.4,4.5-4.2,5.4c-4.3,4.3-9.5,6.4-15.6,6.4c-6,0-11.2-2.1-15.5-6.4
				s-6.4-9.5-6.4-15.6s2.1-11.3,6.4-15.6c4.3-4.3,9.5-6.4,15.5-6.4c6.1,0,11.3,2.2,15.6,6.4c0.9,0.9,2.3,2.6,4.2,5.3l-8,2.9
				c-1-1.3-1.7-2.1-2.1-2.4c-2.7-2.7-5.9-4-9.7-4s-7,1.3-9.7,4s-4,5.9-4,9.7c0,3.8,1.3,7,4,9.7s5.9,4,9.7,4s7.1-1.3,9.8-4
				C116.3,229.5,117,228.7,118,227.5z"/>
		</g>
		<g>
			<path class="st0" d="M172,204.2v-2.8h8v39.8h-8v-5c-3.9,4-8.3,6-13.4,6c-6.1,0-11.3-2.1-15.5-6.4c-4.3-4.3-6.4-9.5-6.4-15.5
				c0-6.1,2.1-11.3,6.4-15.5c4.3-4.3,9.5-6.4,15.5-6.4C163.7,198.2,168.2,200.2,172,204.2z M172,223.1v-5.9
				c-0.5-2.5-1.7-4.8-3.7-6.8c-2.7-2.7-5.9-4-9.7-4c-3.8,0-7.1,1.3-9.7,4c-2.7,2.7-4,5.9-4,9.7c0,3.8,1.3,7,4,9.7s5.9,4,9.7,4
				c3.8,0,7-1.3,9.7-4C170.3,227.9,171.5,225.6,172,223.1z"/>
			<path class="st0" d="M199.7,206.8c3-4,6.7-6.2,11-6.4v8.3c-2.9,0.2-5.2,1.1-6.9,2.8c-2.6,2.6-4,5.6-4.1,9.2v20.4h-8v-39.7h8
				V206.8z"/>
		</g>
		<rect x="0" y="181.4" class="st0" width="252.2" height="8.5"/>
		<rect x="21.4" y="161.2" class="st0" width="7.6" height="79.9"/>
		<rect x="223.1" y="161.2" class="st0" width="7.6" height="79.9"/>
	</g>
	<g>
		<path class="st0" d="M126.1,161.2c-44.4,0-80.6-36.2-80.6-80.6S81.7,0,126.1,0s80.6,36.2,80.6,80.6S170.5,161.2,126.1,161.2z
			 M126.1,7.6c-40.2,0-73,32.7-73,73s32.7,73,73,73s73-32.7,73-73S166.3,7.6,126.1,7.6z"/>
		<rect x="50.5" y="67.3" class="st0" width="151.8" height="7.6"/>
		<path class="st0" d="M89.3,150.7c-0.3,0-0.7,0-1-0.1c-1.7-0.5-2.8-2-2.8-3.7V14.7c0-2.1,1.7-3.8,3.8-3.8s3.8,1.7,3.8,3.8v118.2
			l68.2-115.8c0.9-1.5,2.6-2.2,4.3-1.7c1.7,0.5,2.8,2,2.8,3.7v125.8c0,2.1-1.7,3.8-3.8,3.8c-2.1,0-3.8-1.7-3.8-3.8V33L92.6,148.8
			C91.9,150,90.7,150.7,89.3,150.7z"/>
	</g>
</g>
</svg>
