<?xml version="1.0" encoding="UTF-8"?><svg id="Layer_2" xmlns="http://www.w3.org/2000/svg" viewBox="0 0 418.2 418.2"><g id="_레이어_1"><path d="M209.1,0C93.8,0,0,93.8,0,209.1s93.8,209.1,209.1,209.1,209.1-93.8,209.1-209.1S324.4,0,209.1,0Zm186.16,174.59h-76.34V54.97c39.17,27.99,67.26,70.51,76.34,119.63Zm-96.12,0h-52.4l52.4-89.04v89.04Zm1.78-131.01c-.15,.21-.29,.43-.42,.65l-76.72,130.36H123.63V40.2c25.69-13.05,54.73-20.42,85.47-20.42,33.3,0,64.61,8.65,91.82,23.81ZM123.63,194.37h88.51l-88.51,150.4V194.37ZM103.85,51.8v122.79H22.94c9.43-51,39.37-94.9,80.92-122.79ZM19.78,209.1c0-4.96,.19-9.87,.57-14.73H103.85v172.02c-50.66-34.01-84.08-91.82-84.08-157.29Zm106.49,170.21l108.84-184.94h64.04v181.23s0,0,0,0c-26.79,14.55-57.47,22.82-90.04,22.82-29.69,0-57.8-6.88-82.83-19.11Zm192.65-16.08V194.37h78.94c.38,4.86,.57,9.77,.57,14.73,0,63.48-31.41,119.76-79.51,154.13Z"/></g></svg>