<?xml version="1.0" encoding="utf-8"?>
<!-- Generator: Adobe Illustrator 26.4.1, SVG Export Plug-In . SVG Version: 6.00 Build 0)  -->
<svg version="1.1" id="Layer_1" xmlns="http://www.w3.org/2000/svg" xmlns:xlink="http://www.w3.org/1999/xlink" x="0px" y="0px"
	 viewBox="0 0 320.4 105.2" style="enable-background:new 0 0 320.4 105.2;" xml:space="preserve">
<style type="text/css">
	.st0{fill:#FFFFFF;}
</style>
<g>
	<g>
		<g>
			<path class="st0" d="M161.2,60.7v23h-6.3V52.3h6.3V56c1.3-3.6,4-5.4,8-5.4c3.4,0,6.1,1.2,8.1,3.6c2,2.4,3,5.4,3.1,9.1v20.4h-6.3
				V63.5c0-1.8-0.7-3.4-2-4.7s-2.9-1.9-4.7-1.9s-3.4,0.6-4.7,1.9C161.9,59.6,161.4,60.2,161.2,60.7z"/>
			<path class="st0" d="M214.4,72.9l6.3,2.3c-1.5,2.1-2.7,3.5-3.4,4.2c-3.4,3.4-7.5,5.1-12.3,5.1s-8.9-1.7-12.3-5.1
				s-5.1-7.5-5.1-12.3s1.7-8.9,5.1-12.3c3.4-3.4,7.5-5.1,12.3-5.1s8.9,1.7,12.3,5.1c0.7,0.7,1.8,2.1,3.4,4.2l-6.3,2.3
				c-0.8-1-1.4-1.6-1.6-1.9c-2.1-2.1-4.7-3.2-7.7-3.2s-5.5,1.1-7.7,3.2c-2.1,2.1-3.2,4.7-3.2,7.7s1.1,5.5,3.2,7.7
				c2.1,2.1,4.7,3.2,7.7,3.2s5.6-1.1,7.7-3.2C213.1,74.6,213.6,73.9,214.4,72.9z"/>
		</g>
		<g>
			<path class="st0" d="M257.1,54.5v-2.2h6.3v31.4h-6.3v-3.9c-3.1,3.2-6.6,4.7-10.6,4.7c-4.8,0-8.9-1.7-12.3-5.1s-5.1-7.5-5.1-12.3
				s1.7-8.9,5.1-12.3c3.4-3.4,7.5-5.1,12.3-5.1C250.5,49.8,254,51.4,257.1,54.5z M257.1,69.5v-4.6c-0.4-2-1.3-3.8-2.9-5.4
				c-2.1-2.1-4.7-3.2-7.7-3.2s-5.6,1.1-7.7,3.2c-2.1,2.1-3.2,4.7-3.2,7.7s1.1,5.5,3.2,7.7c2.1,2.1,4.7,3.2,7.7,3.2s5.6-1.1,7.7-3.2
				C255.7,73.3,256.7,71.5,257.1,69.5z"/>
			<path class="st0" d="M278.9,56.6c2.4-3.2,5.3-4.9,8.7-5v6.6c-2.3,0.1-4.1,0.9-5.5,2.2c-2.1,2-3.1,4.5-3.2,7.3v16.1h-6.3V52.4h6.3
				V56.6z"/>
		</g>
		<rect x="121.2" y="36.5" class="st0" width="199.2" height="6.7"/>
		<rect x="138.1" y="20.6" class="st0" width="6" height="63.2"/>
		<rect x="297.4" y="20.6" class="st0" width="6" height="63.2"/>
	</g>
	<g>
		<path class="st0" d="M52.6,105.2C23.6,105.2,0,81.6,0,52.6S23.6,0,52.6,0s52.6,23.6,52.6,52.6S81.6,105.2,52.6,105.2z M52.6,4.9
			C26.3,4.9,4.9,26.3,4.9,52.6s21.4,47.7,47.7,47.7s47.7-21.4,47.7-47.7S78.9,4.9,52.6,4.9z"/>
		<rect x="3.2" y="43.9" class="st0" width="99.2" height="5"/>
		<path class="st0" d="M28.6,98.3c-0.2,0-0.4,0-0.7-0.1c-1.1-0.3-1.8-1.3-1.8-2.4V9.5c0-1.4,1.1-2.5,2.5-2.5s2.5,1.1,2.5,2.5v77.2
			L75.6,11c0.6-1,1.7-1.4,2.8-1.1c1.1,0.3,1.8,1.3,1.8,2.4v82.1c0,1.4-1.1,2.5-2.5,2.5s-2.5-1.1-2.5-2.5v-73L30.7,97.1
			C30.3,97.9,29.5,98.3,28.6,98.3z"/>
	</g>
</g>
</svg>
