<svg xmlns="http://www.w3.org/2000/svg" viewBox="0 0 230 230"><defs><style>.cls-1{fill:#d3d3d3;}</style></defs><g id="Graphic_Elements" data-name="Graphic Elements"><path class="cls-1" d="M46.29,161.18a2,2,0,0,0,.58,1.47,5.15,5.15,0,0,0,1.52,1,14.08,14.08,0,0,0,2.12.77l2.39.67a36.31,36.31,0,0,1,3.51,1.24,11,11,0,0,1,2.7,1.57,6.53,6.53,0,0,1,1.73,2.16,6.72,6.72,0,0,1,.61,3,7.59,7.59,0,0,1-.76,3.44,7.34,7.34,0,0,1-2.17,2.61,10.68,10.68,0,0,1-3.44,1.65,16.61,16.61,0,0,1-4.53.57,21,21,0,0,1-2.61-.16,22.62,22.62,0,0,1-2.53-.44,18.08,18.08,0,0,1-2.29-.71,10,10,0,0,1-1.88-.95A4.59,4.59,0,0,1,40,178a2.26,2.26,0,0,1-.46-1.34,2.17,2.17,0,0,1,.2-.89,2.91,2.91,0,0,1,.49-.79,2.62,2.62,0,0,1,.67-.58,1.53,1.53,0,0,1,.74-.22,2,2,0,0,1,.64.11c.2.08.41.16.63.27s.43.21.65.34a5.83,5.83,0,0,0,.72.32,20.59,20.59,0,0,0,2.83,1,11.45,11.45,0,0,0,3.28.46,9.06,9.06,0,0,0,1.76-.17,5.46,5.46,0,0,0,1.46-.53,2.92,2.92,0,0,0,1-.92,2.52,2.52,0,0,0,.36-1.37,2.44,2.44,0,0,0-.22-1.07,2.36,2.36,0,0,0-.6-.83,3.62,3.62,0,0,0-.89-.62,8.79,8.79,0,0,0-1.08-.47l-.82-.29c-.15,0-.31-.1-.45-.16l-.47-.15-.95-.27-.53-.14a2.54,2.54,0,0,1-.39-.13l-.34-.13-.38-.13-1.72-.6a19.78,19.78,0,0,1-2.84-1.26,7.51,7.51,0,0,1-1.93-1.48,5.06,5.06,0,0,1-1.1-1.87,7.4,7.4,0,0,1-.36-2.43,7.1,7.1,0,0,1,.76-3.3,7,7,0,0,1,2.17-2.51,10.63,10.63,0,0,1,3.42-1.61,17,17,0,0,1,4.53-.56,18.07,18.07,0,0,1,2,.12c.71.08,1.43.2,2.15.35a17.1,17.1,0,0,1,2.07.61,8.76,8.76,0,0,1,1.76.88A4.51,4.51,0,0,1,60,156.75a2.34,2.34,0,0,1,.46,1.42,2.14,2.14,0,0,1-.17.84,2,2,0,0,1-.47.65,1.92,1.92,0,0,1-.68.43,2.05,2.05,0,0,1-.81.16,2.08,2.08,0,0,1-1-.24c-.58-.29-1.11-.54-1.6-.75a14.25,14.25,0,0,0-1.47-.51,10.21,10.21,0,0,0-1.5-.29,14.8,14.8,0,0,0-1.7-.09,9.94,9.94,0,0,0-1.73.15,5.58,5.58,0,0,0-1.51.5,3.06,3.06,0,0,0-1.07.86A2,2,0,0,0,46.29,161.18Z"/><path class="cls-1" d="M74,168.74a2.61,2.61,0,0,0-.81-2.17,3.47,3.47,0,0,0-2.18-.64,12.35,12.35,0,0,0-1.53.09c-.47.07-.92.14-1.34.23l-1.19.28-1.08.28a3.16,3.16,0,0,1-.74.11,1.68,1.68,0,0,1-1.09-.39,1.35,1.35,0,0,1-.48-1.09,2,2,0,0,1,.34-1.18,3.22,3.22,0,0,1,.94-.89,6.26,6.26,0,0,1,1.38-.62,13.28,13.28,0,0,1,1.65-.39,17,17,0,0,1,1.78-.21c.6,0,1.19-.06,1.75-.06a12.36,12.36,0,0,1,3.2.39,6.33,6.33,0,0,1,2.51,1.3,6.21,6.21,0,0,1,1.64,2.39,9.85,9.85,0,0,1,.59,3.63v7.29a9.91,9.91,0,0,1-.09,1.36,3.49,3.49,0,0,1-.36,1.17,2.12,2.12,0,0,1-.79.81,2.65,2.65,0,0,1-1.35.3,2.26,2.26,0,0,1-1.94-.86,4.15,4.15,0,0,1-.63-2.47,6.06,6.06,0,0,1-2.66,2.7,6.83,6.83,0,0,1-1.74.64,8.31,8.31,0,0,1-1.87.21,7.27,7.27,0,0,1-2.37-.37,5.67,5.67,0,0,1-1.88-1.06,4.88,4.88,0,0,1-1.24-1.64,5,5,0,0,1-.45-2.14,5.44,5.44,0,0,1,.7-2.84,5.22,5.22,0,0,1,2-1.94,10.15,10.15,0,0,1,3.22-1.09,24.56,24.56,0,0,1,4.35-.35H74Zm0,3.5c-.82,0-1.64,0-2.46,0a7.92,7.92,0,0,0-2.18.39,3.57,3.57,0,0,0-1.56.94,2.29,2.29,0,0,0-.59,1.67,2.61,2.61,0,0,0,.21,1.06,2.48,2.48,0,0,0,.61.82,2.85,2.85,0,0,0,.93.53,3.78,3.78,0,0,0,1.2.18,3.88,3.88,0,0,0,1.54-.3,3.46,3.46,0,0,0,1.21-.87,4.22,4.22,0,0,0,.8-1.41,5.58,5.58,0,0,0,.29-1.9Z"/><path class="cls-1" d="M81.81,166a4.71,4.71,0,0,1,.63-2.66,2.42,2.42,0,0,1,2.16-.93,2.72,2.72,0,0,1,2.32.93,4.32,4.32,0,0,1,.7,2.66,5.9,5.9,0,0,1,1-1.6,6.52,6.52,0,0,1,1.44-1.23,7,7,0,0,1,1.76-.79,6.73,6.73,0,0,1,2-.28,7.32,7.32,0,0,1,1.87.24,5.61,5.61,0,0,1,3.11,2.15,6.14,6.14,0,0,1,.93,2,8.22,8.22,0,0,1,1.33-2.06,6.94,6.94,0,0,1,1.66-1.34,6.49,6.49,0,0,1,1.87-.73,8.66,8.66,0,0,1,2-.22,6,6,0,0,1,2.23.42,5.24,5.24,0,0,1,1.87,1.26,6.08,6.08,0,0,1,1.3,2.14,8.49,8.49,0,0,1,.48,3v8.24a4.32,4.32,0,0,1-.7,2.66,2.72,2.72,0,0,1-2.32.93,2.42,2.42,0,0,1-2.16-.93,4.71,4.71,0,0,1-.63-2.66v-8a4.45,4.45,0,0,0-.22-1.47,3.29,3.29,0,0,0-.61-1.09,2.66,2.66,0,0,0-.92-.68,2.85,2.85,0,0,0-1.13-.22,4.19,4.19,0,0,0-1.42.23,3.21,3.21,0,0,0-1.18.73,3.63,3.63,0,0,0-.8,1.26,5,5,0,0,0-.3,1.84v7.38a4.39,4.39,0,0,1-.7,2.66,2.74,2.74,0,0,1-2.33.93,2.42,2.42,0,0,1-2.16-.93,4.71,4.71,0,0,1-.63-2.66v-7.63a4.46,4.46,0,0,0-.77-2.85,2.57,2.57,0,0,0-2.1-1,4.07,4.07,0,0,0-1.46.25,3.26,3.26,0,0,0-1.17.75,3.31,3.31,0,0,0-.77,1.22,4.58,4.58,0,0,0-.29,1.68v7.54a4.32,4.32,0,0,1-.7,2.66,2.72,2.72,0,0,1-2.32.93,2.42,2.42,0,0,1-2.16-.93,4.71,4.71,0,0,1-.63-2.66Z"/><path class="cls-1" d="M125.69,168.74a2.61,2.61,0,0,0-.81-2.17,3.47,3.47,0,0,0-2.18-.64,12.12,12.12,0,0,0-1.53.09c-.47.07-.92.14-1.34.23l-1.19.28-1.08.28a3.16,3.16,0,0,1-.75.11,1.67,1.67,0,0,1-1.08-.39,1.35,1.35,0,0,1-.48-1.09,2,2,0,0,1,.34-1.18,3.22,3.22,0,0,1,.94-.89,6.06,6.06,0,0,1,1.38-.62,13.28,13.28,0,0,1,1.65-.39,16.79,16.79,0,0,1,1.77-.21c.61,0,1.19-.06,1.75-.06a12.38,12.38,0,0,1,3.21.39,6.33,6.33,0,0,1,2.51,1.3,6.21,6.21,0,0,1,1.64,2.39,9.85,9.85,0,0,1,.59,3.63v7.29a9.91,9.91,0,0,1-.09,1.36,3.28,3.28,0,0,1-.37,1.17,2,2,0,0,1-.78.81,2.65,2.65,0,0,1-1.35.3,2.26,2.26,0,0,1-1.94-.86,4.15,4.15,0,0,1-.63-2.47,6.2,6.2,0,0,1-2.66,2.7,7.12,7.12,0,0,1-1.74.64,8.38,8.38,0,0,1-1.87.21,7.27,7.27,0,0,1-2.37-.37,5.57,5.57,0,0,1-1.88-1.06,4.75,4.75,0,0,1-1.24-1.64,5,5,0,0,1-.45-2.14,5.53,5.53,0,0,1,.69-2.84,5.25,5.25,0,0,1,2-1.94,10.15,10.15,0,0,1,3.22-1.09,24.56,24.56,0,0,1,4.35-.35h1.75Zm0,3.5c-.82,0-1.65,0-2.46,0a8.06,8.06,0,0,0-2.19.39,3.59,3.59,0,0,0-1.55.94,2.29,2.29,0,0,0-.6,1.67,2.61,2.61,0,0,0,.22,1.06,2.48,2.48,0,0,0,.61.82,2.66,2.66,0,0,0,.93.53,3.78,3.78,0,0,0,1.2.18,3.92,3.92,0,0,0,1.54-.3,3.46,3.46,0,0,0,1.21-.87,4.22,4.22,0,0,0,.8-1.41,5.83,5.83,0,0,0,.29-1.9Z"/><path class="cls-1" d="M138.07,167.28a1.23,1.23,0,0,0,.62,1.1,5.53,5.53,0,0,0,1.72.65c.69.16,1.4.31,2.13.46s1.44.31,2.13.5a17.14,17.14,0,0,1,2,.66,6.73,6.73,0,0,1,1.61,1,4.14,4.14,0,0,1,1.09,1.39,4.28,4.28,0,0,1,.4,1.94,5.29,5.29,0,0,1-.58,2.52,5.36,5.36,0,0,1-1.65,1.87,8.16,8.16,0,0,1-2.54,1.18,12.37,12.37,0,0,1-3.27.44,24.58,24.58,0,0,1-3.26-.21,13.06,13.06,0,0,1-2.78-.65A5.93,5.93,0,0,1,133.7,179a2,2,0,0,1-.73-1.52,1.51,1.51,0,0,1,.49-1.19,1.88,1.88,0,0,1,1.26-.42,2.72,2.72,0,0,1,.69.11l.88.28,1,.35c.36.13.73.24,1.12.34a14.78,14.78,0,0,0,1.5.32,10.48,10.48,0,0,0,1.6.12,5.56,5.56,0,0,0,1-.1,3.46,3.46,0,0,0,.89-.31,2,2,0,0,0,.64-.54,1.53,1.53,0,0,0,.31-.8,1.28,1.28,0,0,0,.09-.22.68.68,0,0,0,0-.26,1.21,1.21,0,0,0-.46-.91,3.41,3.41,0,0,0-1.31-.64c-.93-.21-1.83-.42-2.68-.6s-1.63-.37-2.36-.58a14.54,14.54,0,0,1-2-.71,5.38,5.38,0,0,1-1.49-1,4,4,0,0,1-.95-1.4,5.35,5.35,0,0,1-.33-2,4.48,4.48,0,0,1,.57-2.25,4.76,4.76,0,0,1,1.65-1.66,8.28,8.28,0,0,1,2.61-1,15.14,15.14,0,0,1,3.46-.36,13.16,13.16,0,0,1,5.27.83c1.21.55,1.82,1.27,1.82,2.16a1.37,1.37,0,0,1-.5,1.14,1.82,1.82,0,0,1-1.18.39,2.16,2.16,0,0,1-.76-.14l-.93-.31c-.37-.11-.8-.21-1.31-.31a10.85,10.85,0,0,0-1.87-.13,14.25,14.25,0,0,0-1.52.07,4.42,4.42,0,0,0-1.16.26,1.67,1.67,0,0,0-.75.49A1.16,1.16,0,0,0,138.07,167.28Z"/><path class="cls-1" d="M150.26,171.55a10.58,10.58,0,0,1,.63-3.66,8.35,8.35,0,0,1,1.89-3,9.11,9.11,0,0,1,3.18-2.06,12,12,0,0,1,4.47-.77,12.5,12.5,0,0,1,4.36.71,9.13,9.13,0,0,1,3.19,2,8.4,8.4,0,0,1,2,3,10.4,10.4,0,0,1,.68,3.8,10.09,10.09,0,0,1-.64,3.61,8.32,8.32,0,0,1-1.91,3,9.12,9.12,0,0,1-3.19,2,12,12,0,0,1-4.45.76,12.41,12.41,0,0,1-4.4-.72,9,9,0,0,1-3.19-2,8.12,8.12,0,0,1-1.93-3A10.52,10.52,0,0,1,150.26,171.55Zm6.07,0a11.16,11.16,0,0,0,.22,2.28,6,6,0,0,0,.7,1.91,3.82,3.82,0,0,0,5,1.35,3.64,3.64,0,0,0,1.28-1.22,6.23,6.23,0,0,0,.76-1.89,10.86,10.86,0,0,0,.25-2.43,11.18,11.18,0,0,0-.23-2.29,6.12,6.12,0,0,0-.72-1.91,3.8,3.8,0,0,0-1.26-1.32,3.54,3.54,0,0,0-1.89-.48,3.69,3.69,0,0,0-1.9.47,3.77,3.77,0,0,0-1.27,1.3,5.7,5.7,0,0,0-.71,1.91A11.49,11.49,0,0,0,156.33,171.55Z"/><path class="cls-1" d="M178,166.08a5.81,5.81,0,0,1,.94-1.61,6,6,0,0,1,1.44-1.27,7,7,0,0,1,1.85-.82,7.69,7.69,0,0,1,2.17-.29,6.21,6.21,0,0,1,2.29.43,5.71,5.71,0,0,1,2,1.27,6.31,6.31,0,0,1,1.37,2.13,8,8,0,0,1,.51,3l0,8.24a4.39,4.39,0,0,1-.7,2.66,2.74,2.74,0,0,1-2.33.93,2.42,2.42,0,0,1-2.16-.93,4.71,4.71,0,0,1-.63-2.66v-8a4.56,4.56,0,0,0-.22-1.5,3.28,3.28,0,0,0-.62-1.09,2.53,2.53,0,0,0-.94-.65,3.08,3.08,0,0,0-1.17-.22,4.19,4.19,0,0,0-1.42.24,3.28,3.28,0,0,0-1.18.74,3.45,3.45,0,0,0-.82,1.23,4.59,4.59,0,0,0-.3,1.74v7.49a4.32,4.32,0,0,1-.7,2.66,2.72,2.72,0,0,1-2.32.93,2.42,2.42,0,0,1-2.16-.93,4.71,4.71,0,0,1-.63-2.66l0-19.28a4.73,4.73,0,0,1,.63-2.66,2.42,2.42,0,0,1,2.16-.93,2.71,2.71,0,0,1,2.32.93,4.34,4.34,0,0,1,.7,2.66Z"/><path class="cls-1" d="M160.55,79.21l-74.3,46.93c-.88-.89-1.71-1.82-2.5-2.78L159,75.83A49.53,49.53,0,0,0,145.13,59L75.06,103.26c-4-29.78,24.9-53.12,53-43.44V50.46c-39.49-10.9-74.58,28.93-58.4,66.77l74.5-47c.87.91,1.7,1.87,2.48,2.86L71.31,120.63a49.43,49.43,0,0,0,14.08,16.63l69.65-44c3.4,29.51-25.21,52.34-53.07,42.79v9.36C141.19,156.2,176.13,117,160.55,79.21Z"/></g></svg>