<svg xmlns="http://www.w3.org/2000/svg" viewBox="0 0 230 230"><defs><style>.cls-1{fill:#d3d3d3;}</style></defs><g id="Graphic_Elements" data-name="Graphic Elements"><path class="cls-1" d="M76.67,119.63a9.81,9.81,0,0,1-.39,3,4.21,4.21,0,0,1-1.23,2,5.14,5.14,0,0,1-2.22,1.09,14.36,14.36,0,0,1-3.32.33H54l.29-4.34H69.22a7.35,7.35,0,0,0,1.45-.12,1.9,1.9,0,0,0,.93-.39,1.55,1.55,0,0,0,.48-.75,3.79,3.79,0,0,0,.14-1.16,2.39,2.39,0,0,0-.6-1.88,3.65,3.65,0,0,0-2.3-.53H60.4a13.28,13.28,0,0,1-3.3-.35A5,5,0,0,1,55,115.39a4,4,0,0,1-1.17-1.85,8.87,8.87,0,0,1-.35-2.61v-.74a10,10,0,0,1,.35-2.8A3.94,3.94,0,0,1,55,105.48a5.3,5.3,0,0,1,2.19-1.09,14,14,0,0,1,3.37-.35h15.4c-.08.74-.17,1.47-.25,2.17s-.19,1.44-.29,2.18H60.53a3.2,3.2,0,0,0-2.16.54,2.53,2.53,0,0,0-.55,1.85,2.58,2.58,0,0,0,.55,1.87,3.13,3.13,0,0,0,2.16.56h8.79a14.78,14.78,0,0,1,3.45.34,5.75,5.75,0,0,1,2.27,1,3.94,3.94,0,0,1,1.24,1.78,7.31,7.31,0,0,1,.39,2.51Z"/><path class="cls-1" d="M101.33,126l-2.75-5.11H85.32L82.58,126H77.66l12-22h4.51l12,22ZM92,108.32l-5,9.11H97Z"/><path class="cls-1" d="M114.08,126a13.14,13.14,0,0,1-3.29-.35,4.36,4.36,0,0,1-2.1-1.17,4.64,4.64,0,0,1-1.11-2.19,14.24,14.24,0,0,1-.34-3.41v-7.74a14.24,14.24,0,0,1,.34-3.41,4.81,4.81,0,0,1,1.11-2.21,4.36,4.36,0,0,1,2.1-1.17,13.74,13.74,0,0,1,3.29-.33h12.33a6.27,6.27,0,0,1,2.13.33,6.15,6.15,0,0,1,1.55.84,5,5,0,0,1,1,1,6.37,6.37,0,0,1,.57,1l-2.74,2.81a3.39,3.39,0,0,0-.93-1.17,2.94,2.94,0,0,0-1.89-.53h-12a2.71,2.71,0,0,0-2,.61,3.12,3.12,0,0,0-.58,2.17v7.74a6.09,6.09,0,0,0,.1,1.21,1.82,1.82,0,0,0,.37.86,1.6,1.6,0,0,0,.78.53,4.13,4.13,0,0,0,1.34.18h12.17a2.86,2.86,0,0,0,1.89-.53,3.38,3.38,0,0,0,.89-1.17l2.75,2.79a6.37,6.37,0,0,1-.57,1,4.91,4.91,0,0,1-1,1.07,5.54,5.54,0,0,1-1.55.83,5.93,5.93,0,0,1-2.12.34Z"/><path class="cls-1" d="M152.42,126v-9.07H139.35V126h-4.28V104h4.28V113h13.07V104h4.28v22Z"/><path class="cls-1" d="M182.64,126l-2.75-5.11H166.63L163.89,126H159l12-22h4.51l12,22Zm-9.36-17.67-5,9.11h10Z"/><path class="cls-1" d="M189.83,126V104h4.28v17.64h16.55V126Z"/><path class="cls-1" d="M32.4,106h7.35a11.5,11.5,0,0,0-18.57,9.67h15l-.76,2h-14a13,13,0,0,0,.36,1.26H34.94l-.77,2H22.74a12,12,0,0,0,.86,1.25H33.68l-.77,2H25.56a11.51,11.51,0,0,0,18.58-9.67h-15l.77-2h14a10.73,10.73,0,0,0-.37-1.26H30.38l.76-2H42.57a11,11,0,0,0-.86-1.25H31.64Z"/><path class="cls-1" d="M32.66,128.32A13.32,13.32,0,1,1,46,115,13.33,13.33,0,0,1,32.66,128.32Zm0-25.72A12.4,12.4,0,1,0,45.05,115,12.41,12.41,0,0,0,32.66,102.6Z"/></g></svg>