<svg xmlns="http://www.w3.org/2000/svg" viewBox="0 0 230 230"><defs><style>.cls-1{fill:#d3d3d3;}</style></defs><g id="Graphic_Elements" data-name="Graphic Elements"><path class="cls-1" d="M48.7,105v2.54h-14a2.33,2.33,0,0,0-2.41,2.41v3.49H45.93v2.54H32.28v9.12H29.51V109.49A4.54,4.54,0,0,1,34,105Z"/><path class="cls-1" d="M65.84,121.11a3.58,3.58,0,0,1-1.28,2.78,4.44,4.44,0,0,1-3.08,1.16H54.9a4.44,4.44,0,0,1-3.09-1.16,3.62,3.62,0,0,1-1.28-2.78V110.22h2.68v10.33a1.91,1.91,0,0,0,.66,1.5,2.43,2.43,0,0,0,1.66.59h5.3a2.43,2.43,0,0,0,1.66-.59,1.91,1.91,0,0,0,.66-1.5V110.22h2.69Z"/><path class="cls-1" d="M70.18,107.36v2.86H77v2.41H70.19v7.9a2.08,2.08,0,0,0,.6,1.49,2,2,0,0,0,1.5.64H77v2.39H71.91a4.49,4.49,0,0,1-3.1-1.16,3.59,3.59,0,0,1-1.29-2.78q0-6.61,0-13.75Z"/><path class="cls-1" d="M94.11,121.11a3.62,3.62,0,0,1-1.28,2.78,4.44,4.44,0,0,1-3.09,1.16H83.16a4.44,4.44,0,0,1-3.08-1.16,3.58,3.58,0,0,1-1.28-2.78V110.22h2.67v10.33a1.91,1.91,0,0,0,.66,1.5,2.45,2.45,0,0,0,1.67.59h5.29a2.41,2.41,0,0,0,1.66-.59,1.89,1.89,0,0,0,.67-1.5V110.22h2.69Z"/><path class="cls-1" d="M106.83,110.22v2.39h-6.06a2.37,2.37,0,0,0-1.66.6,1.91,1.91,0,0,0-.67,1.51V125H95.77V114.15a3.6,3.6,0,0,1,1.28-2.78,4.43,4.43,0,0,1,3.09-1.15Z"/><path class="cls-1" d="M119.37,110.23a4.48,4.48,0,0,1,3.09,1.16,3.62,3.62,0,0,1,1.28,2.78V119H111.31v2.71a.88.88,0,0,0,.39.73,1.69,1.69,0,0,0,1,.28h9.73v2.31h-10.2a3.81,3.81,0,0,1-2.52-.88,2.72,2.72,0,0,1-1-2.15v-7.85a3.58,3.58,0,0,1,1.28-2.78,4.44,4.44,0,0,1,3.08-1.16Zm-7.38,3a1.92,1.92,0,0,0-.68,1.49v1.9h9.75v-1.9a2,2,0,0,0-.67-1.5,2.4,2.4,0,0,0-1.65-.59h-5.09A2.39,2.39,0,0,0,112,113.24Z"/><path class="cls-1" d="M152.9,105v2.48h-8.22v17.62H141.9V107.43h-8.2V105Z"/><path class="cls-1" d="M163.61,110.23a4.46,4.46,0,0,1,3.09,1.16,3.62,3.62,0,0,1,1.28,2.78V119H155.55v2.71a.88.88,0,0,0,.39.73,1.72,1.72,0,0,0,1,.28h9.73v2.31h-10.2a3.81,3.81,0,0,1-2.52-.88,2.72,2.72,0,0,1-1-2.15v-7.85a3.58,3.58,0,0,1,1.28-2.78,4.44,4.44,0,0,1,3.09-1.16Zm-7.38,3a1.92,1.92,0,0,0-.68,1.49v1.9h9.75v-1.9a2,2,0,0,0-.67-1.5,2.4,2.4,0,0,0-1.65-.59H157.9A2.41,2.41,0,0,0,156.23,113.24Z"/><path class="cls-1" d="M183.42,110.22v2.42h-8.78a2.56,2.56,0,0,0-1.68.62,1.84,1.84,0,0,0-.67,1.47v5.82A1.91,1.91,0,0,0,173,122a2.4,2.4,0,0,0,1.68.6h8.78v2.41H174a4.49,4.49,0,0,1-3.1-1.16,3.62,3.62,0,0,1-1.28-2.78v-7a3.63,3.63,0,0,1,1.28-2.78,4.48,4.48,0,0,1,3.1-1.15Z"/><path class="cls-1" d="M188.09,105v5.28h8a4.52,4.52,0,0,1,3.12,1.16,3.62,3.62,0,0,1,1.28,2.78v10.88h-2.67V114.73a2.05,2.05,0,0,0-.6-1.48,2,2,0,0,0-1.49-.62h-7.64v12.41h-2.68V105Z"/></g></svg>