<svg xmlns="http://www.w3.org/2000/svg" viewBox="0 0 230 230"><defs><style>.cls-1{fill:#d3d3d3;}</style></defs><g id="Graphic_Elements" data-name="Graphic Elements"><path class="cls-1" d="M42.47,177.42a17.34,17.34,0,0,1-4.08-.4,6.06,6.06,0,0,1-2.61-1.31,4.9,4.9,0,0,1-1.38-2.35,13.38,13.38,0,0,1-.41-3.57v-7a13.48,13.48,0,0,1,.41-3.55,4.92,4.92,0,0,1,1.38-2.37,6.05,6.05,0,0,1,2.61-1.3,17.28,17.28,0,0,1,4.08-.41H48v4.21H42.47a7.1,7.1,0,0,0-1.76.18,2.41,2.41,0,0,0-1.09.57,2,2,0,0,0-.56,1,7.54,7.54,0,0,0-.14,1.63v1.5H57.86v3.95H38.92v1.57a7.72,7.72,0,0,0,.14,1.66,1.92,1.92,0,0,0,1.63,1.58,8.75,8.75,0,0,0,1.78.15H58v4.2Z"/><path class="cls-1" d="M61.19,177.42V154h5v23.38Z"/><path class="cls-1" d="M74.69,170.38v.81a5.14,5.14,0,0,0,.13,1.31,1.55,1.55,0,0,0,.47.77,2,2,0,0,0,.92.37,8.06,8.06,0,0,0,1.42.1h5.74v3.68H77.63q-4.22,0-6-1.59t-1.8-5.12v-4.08a12.08,12.08,0,0,1,.38-3.25,4.27,4.27,0,0,1,1.3-2.12A5.75,5.75,0,0,1,74,160.11a17.4,17.4,0,0,1,3.88-.36H86.4a11.66,11.66,0,0,1,3.15.36,5.3,5.3,0,0,1,2,1,3.48,3.48,0,0,1,1,1.53,6.11,6.11,0,0,1,.3,1.94v5.81ZM88,165a1.34,1.34,0,0,0-.44-1.18A3,3,0,0,0,86,163.5H77.92a12.85,12.85,0,0,0-1.53.08,2,2,0,0,0-1,.37,1.65,1.65,0,0,0-.54.85,5.48,5.48,0,0,0-.16,1.5v.95H88Z"/><path class="cls-1" d="M104.69,177.42a17.19,17.19,0,0,1-4.07-.4A5.84,5.84,0,0,1,98,175.71a4.83,4.83,0,0,1-1.39-2.34,13.35,13.35,0,0,1-.41-3.56v-2.38a13.61,13.61,0,0,1,.41-3.58A4.9,4.9,0,0,1,98,161.49a5.84,5.84,0,0,1,2.61-1.3,17.13,17.13,0,0,1,4.07-.41h12.79v4.14H104.86a9.6,9.6,0,0,0-1.88.16,2.44,2.44,0,0,0-1.16.57,2.22,2.22,0,0,0-.58,1.12,8.17,8.17,0,0,0-.17,1.79v2.08a7.69,7.69,0,0,0,.17,1.74,2.26,2.26,0,0,0,.58,1.12,2.47,2.47,0,0,0,1.16.6,8.13,8.13,0,0,0,1.88.18h12.65v4.14Z"/><path class="cls-1" d="M122,177.42V163.69h-2.47v-3.94H122v-5h5v5h5.58v3.94H127v13.73Z"/><path class="cls-1" d="M134.93,177.42V167.18a11.23,11.23,0,0,1,.45-3.39,5.31,5.31,0,0,1,1.45-2.3,6.16,6.16,0,0,1,2.56-1.32,15,15,0,0,1,3.82-.42h3.16v3.94h-3a7.43,7.43,0,0,0-1.7.17,2.34,2.34,0,0,0-1.09.55,2.25,2.25,0,0,0-.59,1.08,7.47,7.47,0,0,0-.17,1.73v10.2Z"/><path class="cls-1" d="M157.1,177.42A17.19,17.19,0,0,1,153,177a5.84,5.84,0,0,1-2.61-1.31,4.76,4.76,0,0,1-1.39-2.34,13.35,13.35,0,0,1-.41-3.56v-2.38a13.61,13.61,0,0,1,.41-3.58,4.82,4.82,0,0,1,1.39-2.36,5.84,5.84,0,0,1,2.61-1.3,17.13,17.13,0,0,1,4.07-.41H163a17.29,17.29,0,0,1,4.1.41,5.75,5.75,0,0,1,2.61,1.32,4.9,4.9,0,0,1,1.39,2.37,13.61,13.61,0,0,1,.41,3.58v2.35a13.35,13.35,0,0,1-.41,3.56,4.76,4.76,0,0,1-1.39,2.34,5.84,5.84,0,0,1-2.61,1.31,17.35,17.35,0,0,1-4.1.4Zm9.56-9.86a7.7,7.7,0,0,0-.18-1.82,2.12,2.12,0,0,0-.65-1.12,2.76,2.76,0,0,0-1.32-.55,12.85,12.85,0,0,0-2.16-.15h-4.6a12.31,12.31,0,0,0-2.13.15,2.72,2.72,0,0,0-1.31.55,2.12,2.12,0,0,0-.65,1.12,7.7,7.7,0,0,0-.18,1.82v2.08a7.49,7.49,0,0,0,.18,1.81,2.14,2.14,0,0,0,.65,1.1,2.83,2.83,0,0,0,1.31.57,11.27,11.27,0,0,0,2.13.16h4.6a11.76,11.76,0,0,0,2.16-.16,2.87,2.87,0,0,0,1.32-.57,2.14,2.14,0,0,0,.65-1.1,7.49,7.49,0,0,0,.18-1.81Z"/><path class="cls-1" d="M196,172.73a9.17,9.17,0,0,1-.23,2.2,2.65,2.65,0,0,1-.9,1.45,4.08,4.08,0,0,1-1.83.8,15.39,15.39,0,0,1-3,.24H174.81v-3.81h14.58a2.16,2.16,0,0,0,1.37-.33,1.57,1.57,0,0,0,.39-1.24v-.58c0-.66-.13-1.06-.38-1.23a2.41,2.41,0,0,0-1.25-.24H179.6a8,8,0,0,1-2.42-.3,3.09,3.09,0,0,1-1.46-.88,3.13,3.13,0,0,1-.7-1.45,10,10,0,0,1-.18-2V164a7,7,0,0,1,.25-2,2.85,2.85,0,0,1,.8-1.32,3.3,3.3,0,0,1,1.5-.73,9.92,9.92,0,0,1,2.38-.23h6.72v3.68h-5.55a1.58,1.58,0,0,0-1,.26,1.19,1.19,0,0,0-.32.95v.81a1.33,1.33,0,0,0,.3,1,1.42,1.42,0,0,0,.95.26h9.6a11.74,11.74,0,0,1,2.78.27,3.76,3.76,0,0,1,1.7.88,3.2,3.2,0,0,1,.85,1.57,10.52,10.52,0,0,1,.23,2.36Z"/><path class="cls-1" d="M160.39,88.18l-6.61,3.38a39.53,39.53,0,0,1-3.3,25.18h0a39.64,39.64,0,0,1-32,21.94c0-.05,0-7.21,0-7.26a32.35,32.35,0,0,0,7.2-1.63v0a32.56,32.56,0,0,0,14.83-10.71h0a32.46,32.46,0,0,0,3.75-6.13h0a32.18,32.18,0,0,0,2.09-5.93H125.05A13.21,13.21,0,0,1,102.53,93.4c5.58-11.18,21.74-9,24.65,2.72h-6.91a6.19,6.19,0,1,0,0,6.37h13.41a19.61,19.61,0,0,0-19.22-22.78c-18.12,0-26.09,21.57-13.82,33.59a19.55,19.55,0,0,0,27.27.13h7.75C121.82,133.62,90,123.89,90,99.3a25,25,0,1,1,50,1.53h7.33a32.31,32.31,0,0,0-2.05-13l12.85-6.58A46.73,46.73,0,0,0,81.83,66.41l6.34,3.87a39.51,39.51,0,0,1,60.24,7.88L142,81.47a32.56,32.56,0,0,0-4.75-5.65h0a32.31,32.31,0,0,0-47.78,3.67L77.12,72a46.64,46.64,0,0,0-5.23,45.36h0a46.37,46.37,0,0,0,3.28,6.39h0a46.9,46.9,0,0,0,29,21v-7.43a39.75,39.75,0,0,1-22.55-16.89h0a39.48,39.48,0,0,1-2.07-38.58l6.19,3.77a32.54,32.54,0,0,0-2.34,7l0,0a32.4,32.4,0,0,0,1.39,18.14h0a32.44,32.44,0,0,0,26.6,20.7c0,8.86,0,5.58,0,14.44a46.73,46.73,0,0,0,41.56-19.25h0a45.46,45.46,0,0,0,3.75-6.13h0A46.64,46.64,0,0,0,160.39,88.18Z"/></g></svg>