<svg xmlns="http://www.w3.org/2000/svg" viewBox="0 0 230 230"><defs><style>.cls-1{fill:#d3d3d3;}</style></defs><g id="Graphic_Elements" data-name="Graphic Elements"><path class="cls-1" d="M37.2,124.71V105.29h3.74L47.54,120,54,105.29h3.6v19.42H54.27V111.19L49,124.71H45.92l-5.38-13.52v13.52Z"/><path class="cls-1" d="M75,105.29v3.1H65.26v4.89h9.27v3.21H65.21v5.09h10v3.13H61.68V105.29Z"/><path class="cls-1" d="M78.51,124.71V105.29h7.62q9.65,0,9.65,9.18,0,10.23-9.65,10.24Zm7.62-3.13q6,0,6.05-7.11,0-6.06-6.05-6h-4v13.16Z"/><path class="cls-1" d="M102.44,105.29v19.42h-3.6V105.29Z"/><path class="cls-1" d="M108.52,124.71h-3.7l8.26-19.42H117l8.43,19.42h-3.87l-2.22-5.3h-6.46l1.24-3.12H118L114.93,109Z"/><path class="cls-1" d="M137.35,105.29v17.38h10.17v2H134.83V105.29Z"/><path class="cls-1" d="M153.43,105.29v19.42h-2.51V105.29Z"/><path class="cls-1" d="M158.46,124.71V105.29H161l11.9,15.64V105.29h2.38v19.42h-2.52l-11.9-15.78v15.78Z"/><path class="cls-1" d="M192.59,105.29v2h-10.2v6.52h9.73v2h-9.73v6.79H192.8v2H179.88V105.29Z"/></g></svg>